<svg aria-hidden="true" style="position:absolute;width:0;height:0;overflow:hidden" xmlns="http://www.w3.org/2000/svg">
  <defs>
    <symbol id="icon-Vector" viewBox="0 0 27 32">
      <path d="M-.102 31.759h26.785c.133-3.054-.086-8.122-1.964-10.535l-.068-.087-4.104-2.06c.089-.301.133-.576.151-.778a1.43 1.43 0 0 0-.1-.678c-.677-1.62-2.11-2.472-2.898-2.836.24-.484.395-1.003.47-1.534.446-.126.805-.479.922-.951l.479-1.946a1.314 1.314 0 0 0-.151-1.002c-.078-.13-.18-.24-.294-.334 1.351-3.068-.911-5.96-1.035-6.113C15.641.256 12.546.752 12.383.781c-4.466.935-6.19 4.358-5.217 8.372a1.317 1.317 0 0 0-.302 1.2l.481 1.948c.117.468.473.82.916.948a5.014 5.014 0 0 0 1.152 2.559v1.543c-6.409 3.282-2.348 1.188-7.484 3.786-.01.048-2.41 2.599-2.053 10.159l.022.462zm25.854-.97h-4.408v-1.852l2.916-6.674c1.461 2.424 1.515 7.053 1.493 8.526zm-6.017-12.573c-.17 1.954-1.242 1.363-1.903 2.869-.52-.572-.677-1.258-.537-1.993.253-1.348-.57-1.749-.367-3.166l.031-.032v-.004c.017-.02.18-.213.227-.274 1.744.76 2.584 2.174 2.55 2.6zm-9.356-1.536a4.963 4.963 0 0 0 5.574.074c.112 1.114.547 1.337.393 2.157a3.536 3.536 0 0 0-.054.45l-3.002 3.384-3.838-4.327.926-.484V16.68zm-1.207-4.14V7.368c.467-.864 1.104-1.491 1.896-1.866 2.12 1.2 4.56 2.99 6.197 4.791-.002 2.294.006 2.301-.009 2.489l-.001.012c-.128 2.084-1.841 3.811-4.038 3.811-2.136 0-3.909-1.677-4.037-3.831a2.578 2.578 0 0 1-.008-.233zm-.598 6.346 4.716 5.317 3.166-3.568c.072.208.174.405.29.595l-3.456 4.322-5.154-6.446.438-.22zm9.656-7.127v-1.498l.36-.413c.02.758.102-.137-.36 1.911zM12.562 1.734c.192.012 2.765-.391 4.799 1.804.08.1 1.736 2.234 1.071 4.567-.228-1.038-.624-2.369-1.252-3.004l-.686.683c.619.627 1.026 2.537 1.181 3.527-2.84-2.972-6.504-4.853-6.555-4.885-.184.114-1.734.409-2.86 2.598l-.054.105v1.607l-.142.002c-.716-3.454.655-6.198 4.497-7.004zM7.963 9.736l.244.987v1.038l-.405-1.639c-.059-.244.122-.337.161-.386zm-.71 9.814 6.037 7.551 4.085-5.109c.444.398.658.454 1.6.939l-.318-1.078c-.081-.274.239-.713.431-.914.43-.234.789-.566 1.058-.978l3.333 1.674-3.101 7.1v2.055H6.202v-2.055l-3.103-7.099 4.153-2.085zm-4.932 2.715 2.916 6.673v1.852H.829c-.022-1.473.033-6.099 1.492-8.524z"/>
    </symbol>
    <symbol id="icon-Vector2" viewBox="0 0 33 32">
      <path d="M30.175-.128H14.429a1.861 1.861 0 0 0-1.859 1.859v6.518L.872 13.159a.38.38 0 0 0-.049.678l1.492.893v9.515A1.719 1.719 0 0 0 .98 25.919v.917c0 .21.171.381.381.381h2.671c.21 0 .381-.171.381-.381v-.917a1.72 1.72 0 0 0-1.336-1.673v-9.06l1.18.706c-.036.272-.005-.474-.017 4.43 0 1.612 4.129 2.476 8.33 2.525v7.425a1.857 1.857 0 0 0 1.858 1.856h15.746a1.859 1.859 0 0 0 1.857-1.857c0 .051-.002-1.573 0-28.54a1.87 1.87 0 0 0-1.856-1.859zM3.652 25.918v.536H1.743v-.536a.955.955 0 1 1 1.909 0zm26.523 5.446H14.429a1.09 1.09 0 0 1-1.096-1.093v-2.574h17.935v2.575c0 .597-.497 1.092-1.092 1.092zm1.092-4.429H13.332v-4.086c2.051-.023 8.335-.475 8.335-2.527-.002-3.081.005-4.33-.01-4.436l3.421-2.049a.382.382 0 0 0-.049-.678l-11.698-4.91V5.067h17.935v21.868zm-18.316-9.143c-2.113 0-6.182.273-7.949 1.427.011-3.53-.122-3.3.312-3.6 1.098-.809 4.238-1.373 7.637-1.373 1.482 0 7.954.408 7.954 1.778v3.195c-1.784-1.165-5.832-1.428-7.954-1.428zm.382-16.061c0-.604.491-1.095 1.095-1.095h15.746c.605 0 1.093.498 1.093 1.095v2.574H13.332V1.731zm-.382 7.184 11.09 4.655-2.748 1.644c-1.461-1.449-6.294-1.73-8.342-1.73-2.051 0-6.884.282-8.342 1.73L1.86 13.569l11.091-4.655zM5.002 20.321c0-.616 2.73-1.767 7.949-1.767 5.222 0 7.954 1.151 7.954 1.767s-2.732 1.768-7.954 1.768c-5.219 0-7.949-1.151-7.949-1.768z"/>
    </symbol>
    <symbol id="icon-Vector3" viewBox="0 0 28 32">
      <path d="M.542 13.742c0 .357-.542.357-.542 0C0 6.154 6.154 0 13.742 0c7.591 0 13.742 6.154 13.742 13.742 0 .357-.538.357-.538 0 0-5.129-8.428-5.132-8.428 0 0 .357-.555.357-.555 0 0-5.116-8.441-5.116-8.441 0 0 .357-.555.357-.555 0 0-5.106-8.425-5.142-8.425 0zm8.473-1.992c.146-2.952.61-5.599 1.285-7.62.539-1.606 1.22-2.826 1.992-3.51C6.498 1.253 1.807 5.645.759 11.342c1.995-2.878 6.602-2.647 8.256.409zm8.905-.133c-.149-2.839-.6-5.379-1.249-7.316-1.674-5.012-4.185-5.012-5.859 0-.649 1.937-1.096 4.477-1.249 7.316 1.8-3.059 6.556-3.059 8.357 0zm8.805-.276A13.205 13.205 0 0 0 15.192.619c.775.684 1.453 1.904 1.992 3.51.675 2.021 1.139 4.668 1.285 7.62 1.664-3.072 6.284-3.254 8.256-.409zM11.939 20.03v-2.791c-.503.334-.899.85-.899 1.48 0 .613.402 1.019.899 1.311zm.541.866c-.964-.441-1.979-.957-1.979-2.177 0-1.259.957-1.888 1.979-2.359v4.536zM15.546 24.24v2.822c.509-.337.908-.856.908-1.486 0-.62-.409-1.038-.908-1.337zm-.539-.869c.967.448 1.989.98 1.989 2.206 0 1.262-.964 1.891-1.989 2.358v-4.564z"/>
      <path d="M15.545 14.063c2.219.513 4.5 2.174 4.5 4.655 0 2.125-3.591 2.047-3.591 0 0-.633-.399-1.152-.908-1.486v3.971c2.054.672 4.506 1.875 4.506 4.373 0 2.485-2.281 4.143-4.506 4.652-.01 2.365-3.601 2.362-3.607-.003-1.265-.292-2.365-.882-3.16-1.664-.834-.824-1.327-1.859-1.327-2.985 0-2.093 3.588-2.093 3.588 0 0 .626.396 1.142.899 1.476v-3.968c-2.037-.659-4.503-1.898-4.503-4.373 0-2.485 2.281-4.143 4.503-4.652.01-2.365 3.601-2.362 3.607.003zm-3.065.007v.432c-2.112.418-4.506 1.771-4.506 4.211 0 2.346 2.628 3.397 4.506 3.977v5.243c-1.015-.464-1.979-1.09-1.979-2.355 0-1.382-2.511-1.382-2.511 0 0 .976.435 1.878 1.168 2.599.931.921 2.06 1.359 3.322 1.609v.435c0 1.664 2.527 1.664 2.527 0v-.431c2.118-.422 4.503-1.775 4.503-4.211 0-2.368-2.621-3.387-4.503-3.981v-5.239c1.019.464 1.989 1.09 1.989 2.362 0 1.346 2.508 1.402 2.508 0 0-2.436-2.381-3.792-4.496-4.214v-.435c0-1.664-2.527-1.664-2.527 0z"/>
    </symbol>
  </defs>
</svg>
