<svg width="41" height="46" viewBox="0 0 41 46" fill="none" xmlns="http://www.w3.org/2000/svg">
<path d="M0.0882466 46C5.33788 46 35.7084 46 40.9518 46C41.1542 41.4722 40.8204 33.96 37.9553 30.3845L37.8517 30.256L31.5907 27.2017C31.7267 26.7562 31.7936 26.3481 31.8204 26.0481C31.8514 25.688 31.8003 25.3497 31.668 25.0434C30.6351 22.6419 28.4494 21.3784 27.2472 20.8398C27.6136 20.1226 27.8497 19.3527 27.9638 18.566C28.6444 18.3798 29.1918 17.8557 29.3713 17.1567L30.1021 14.272C30.2315 13.7632 30.1503 13.2354 29.8719 12.7866C29.7521 12.5931 29.5972 12.4302 29.4235 12.2909C31.4839 7.74354 28.033 3.45583 27.8449 3.23014C24.1075 -0.696025 19.3861 0.0381171 19.1365 0.081627C12.3228 1.46787 9.6934 6.54149 11.1779 12.4919C10.7381 12.9653 10.5535 13.6247 10.7165 14.2713L11.4509 17.1591C11.6289 17.853 12.172 18.3752 12.8477 18.5637C13.0562 20.0044 13.6839 21.3074 14.6057 22.3576V24.6444C4.82801 29.5094 11.0234 26.4056 3.18767 30.2571C3.17218 30.329 -0.489027 34.1096 0.0551606 45.3153L0.0882466 46ZM39.532 44.5626H32.8066V41.8177L37.2547 31.924C39.4831 35.5175 39.5658 42.3788 39.532 44.5626ZM30.3531 25.926C30.0936 28.8226 28.4586 27.9471 27.4493 30.1788C26.6555 29.3307 26.4168 28.3137 26.6301 27.2251C27.0155 25.2262 25.7598 24.6325 26.0702 22.5322L26.1172 22.4841V22.4774C26.1439 22.4485 26.3915 22.1619 26.4632 22.0714C29.124 23.1984 30.405 25.2944 30.3531 25.926ZM16.0788 23.6491C17.314 24.4816 18.8051 24.9735 20.4089 24.9735C21.9193 24.9735 23.3539 24.5465 24.5838 23.7602C24.7543 25.4114 25.4185 25.7419 25.1828 26.957C25.1386 27.1825 25.1147 27.4048 25.1005 27.6234L20.5204 32.6388L14.6655 26.2254L16.0788 25.5084V23.6491H16.0788ZM14.2374 17.5111V14.7304C14.2374 13.7063 14.2374 9.64379 14.2374 9.8444C14.9502 8.56352 15.922 7.63462 17.1297 7.0777C20.3641 8.85582 24.0872 11.5095 26.584 14.1801C26.5817 17.5813 26.5939 17.5905 26.5706 17.87L26.5691 17.8877C26.3742 20.9761 23.7605 23.5362 20.4089 23.5362C17.1505 23.5362 14.4453 21.0505 14.2496 17.8571C14.2396 17.7427 14.2374 17.628 14.2374 17.5111ZM13.3253 26.9191L20.5204 34.7998L25.3509 29.5102C25.4613 29.819 25.6162 30.1108 25.7933 30.3927L20.5204 36.7994L12.6575 27.2448L13.3253 26.9191ZM28.0571 16.3544V14.1341C28.1219 14.062 28.671 13.4502 28.6063 13.5223C28.6367 14.6465 28.7616 13.3197 28.0571 16.3544ZM19.4091 1.49411C19.7013 1.51179 23.6277 0.913843 26.7308 4.16887C26.8529 4.31784 29.379 7.48 28.3641 10.9393C28.0168 9.39996 27.4113 7.4274 26.4546 6.48604L25.4087 7.49811C26.3534 8.4278 26.974 11.2589 27.2103 12.7266C22.8769 8.32088 17.2869 5.53239 17.2102 5.4852C16.9299 5.65461 14.5643 6.09157 12.8463 9.33591L12.7643 9.49102V11.8738C12.6905 11.8746 12.474 11.8768 12.5477 11.876C11.4562 6.75563 13.5466 2.68801 19.4091 1.49411ZM12.3925 13.3547L12.7643 14.8181V16.3562L12.1464 13.9264C12.0558 13.5642 12.3319 13.4269 12.3925 13.3547ZM11.3094 27.9024L20.5204 39.0952L26.7524 31.5221C27.4303 32.1116 27.7562 32.1952 29.1936 32.9133L28.7088 31.3155C28.5858 30.9098 29.0728 30.2592 29.367 29.9602C30.0236 29.6142 30.5709 29.1206 30.9803 28.5112L36.065 30.9919L31.3335 41.5166V44.5626H9.70659V41.5162L4.97294 30.993L11.3094 27.9024ZM3.78468 31.9272L8.23349 41.818V44.5626H1.50812C1.47432 42.3795 1.55776 35.5217 3.78468 31.9272Z" fill="#FF6B09"/>
</svg>
