<svg width="46" height="47" viewBox="0 0 46 47" fill="none" xmlns="http://www.w3.org/2000/svg">
<path d="M43.2802 0H20.2073C18.7052 0 17.4834 1.21497 17.4834 2.70856V12.2058L0.342301 19.36C0.148234 19.4409 0.016312 19.6231 0.00141173 19.832C-0.0134885 20.0408 0.0904499 20.2403 0.27107 20.348L2.45705 21.649V35.513C1.33921 35.7665 0.500389 36.7613 0.500389 37.9517V39.2881C0.500389 39.5945 0.750423 39.8432 1.0586 39.8432H4.97301C5.2812 39.8432 5.53123 39.5945 5.53123 39.2881V37.9517C5.53123 36.7629 4.69227 35.7694 3.57348 35.5144V22.3135L5.30191 23.3422C5.24877 23.7385 5.29518 22.6514 5.2772 29.7967C5.2772 32.1455 11.3274 33.4038 17.4834 33.4759V44.2954C17.4834 44.8543 17.6555 45.3741 17.9497 45.8055C18.4393 46.5255 19.2679 47 20.2058 47H43.2787C44.7793 47 46 45.7858 46 44.294C46 44.3681 45.9969 42.0021 46 2.70893C46 1.2356 44.7749 0 43.2802 0ZM4.4148 37.9517V38.733H1.61682V37.9517C1.61682 37.1827 2.24299 36.5568 3.01236 36.5568C3.78572 36.5568 4.4148 37.1827 4.4148 37.9517ZM43.2802 45.8869H20.2073C19.6536 45.8869 19.1646 45.6083 18.8754 45.1853C18.7022 44.9306 18.6009 44.6238 18.6009 44.294V40.5435H44.8807V44.2954C44.8807 45.1648 44.1521 45.8869 43.2802 45.8869ZM44.8807 39.4334H18.5999V33.4792C21.6055 33.445 30.8134 32.7868 30.8134 29.7967C30.81 25.308 30.8213 23.4879 30.7992 23.3338L35.8119 20.348C35.9925 20.2403 36.0964 20.0408 36.0815 19.832C36.0666 19.6231 35.9347 19.4409 35.7406 19.36L18.5999 12.2057V7.56952H44.8807V39.4334ZM18.0416 26.1114C14.9453 26.1114 8.98358 26.509 6.39363 28.1907C6.41006 23.0468 6.21415 23.3819 6.85117 22.9456C8.46004 21.7675 13.0617 20.945 18.0416 20.945C20.2137 20.945 29.6969 21.5388 29.6969 23.5354V28.1915C27.0827 26.4941 21.1512 26.1114 18.0416 26.1114ZM18.6009 2.70893C18.6009 1.82896 19.3209 1.11306 20.2058 1.11306H43.2787C44.1644 1.11306 44.8807 1.839 44.8807 2.70856V6.45936H18.6009V2.70893ZM18.0416 13.1767L34.292 19.9592L30.2655 22.3552C28.1247 20.2442 21.0434 19.8349 18.0416 19.8349C15.0359 19.8349 7.95411 20.2455 5.81797 22.3559L1.79017 19.9592L18.0416 13.1767ZM6.39363 29.7967C6.39363 28.8983 10.3942 27.2215 18.0416 27.2215C25.6938 27.2215 29.6969 28.8983 29.6969 29.7967C29.6969 30.6959 25.6938 32.3727 18.0416 32.3727C10.3942 32.3727 6.39363 30.6959 6.39363 29.7967Z" fill="#FF6B09"/>
<path d="M31.7417 41.3804C30.7237 41.3804 29.8955 42.2036 29.8955 43.2162C29.8955 44.2288 30.7237 45.0527 31.7417 45.0527C32.76 45.0527 33.5882 44.2288 33.5882 43.2162C33.5882 42.2036 32.76 41.3804 31.7417 41.3804ZM31.7417 43.9426C31.3394 43.9426 31.0119 43.6166 31.0119 43.2162C31.0119 42.8158 31.3394 42.4905 31.7417 42.4905C32.1444 42.4905 32.4718 42.8158 32.4718 43.2162C32.4718 43.6166 32.1444 43.9426 31.7417 43.9426Z" fill="#FF6B09"/>
<path d="M33.8719 3.23145H29.6133V4.34161H33.8719V3.23145Z" fill="#FF6B09"/>
</svg>
